<svg xmlns="http://www.w3.org/2000/svg" width="172" height="125" viewBox="0 0 172 125">
<g>
<path d="M 111.50 123.04 L 104.50 124.89 L 172.00 125.00 L 0.00 125.00 L 33.25 124.95 L 66.50 124.89 L 58.24 122.45 C34.75,115.50 18.20,104.38 8.49,89.00 C-0.62,74.58 -1.49,55.72 6.25,40.52 C15.95,21.48 40.31,5.37 66.00,1.00 C68.55,0.57 55.20,0.18 35.25,0.12 L 0.00 0.00 L 172.00 0.00 L 136.25 0.12 C111.51,0.20 102.16,0.51 105.89,1.13 C114.11,2.49 128.66,7.67 136.62,12.07 C150.20,19.56 163.09,33.95 167.53,46.56 C169.80,53.00 170.54,66.08 169.04,73.30 C164.34,95.93 142.45,114.86 111.50,123.04 ZM 67.32 121.15 C80.14,123.46 92.89,123.28 108.00,120.56 C117.91,118.78 129.11,114.10 137.30,108.32 C139.93,106.46 142.46,105.17 142.91,105.45 C143.37,105.73 145.04,104.84 146.62,103.48 C148.20,102.12 149.84,101.00 150.25,101.00 C150.66,101.00 151.00,100.21 151.00,99.24 C151.00,98.27 152.57,95.68 154.48,93.49 C156.40,91.30 157.97,89.18 157.98,88.79 C157.99,88.40 158.90,87.24 159.99,86.22 C161.10,85.19 162.43,82.00 163.00,79.00 C163.56,76.05 164.77,72.81 165.68,71.80 C166.98,70.36 167.30,68.22 167.15,61.98 C166.94,53.64 165.94,49.69 163.28,46.75 C162.40,45.79 162.01,45.00 162.41,45.00 C162.80,45.00 162.12,43.20 160.88,41.00 C159.64,38.80 158.26,37.00 157.82,37.00 C157.37,37.00 157.00,36.56 157.00,36.03 C157.00,34.51 147.06,24.21 142.04,20.53 C123.49,6.93 97.17,0.71 72.32,4.05 C58.19,5.96 38.10,13.27 31.50,18.91 C29.52,20.60 23.57,23.50 23.43,22.84 C23.32,22.32 20.00,25.78 20.00,26.42 C20.00,27.69 12.63,36.48 11.78,36.23 C11.27,36.07 11.13,36.40 11.47,36.96 C11.82,37.51 10.95,39.65 9.55,41.71 C7.91,44.12 7.00,46.84 7.00,49.30 C7.00,51.41 6.52,54.02 5.94,55.11 C4.23,58.31 4.00,72.16 5.62,74.47 C6.38,75.56 7.00,77.21 7.00,78.14 C7.00,82.74 23.36,102.98 29.50,105.96 C31.15,106.76 33.17,107.95 34.00,108.61 C37.83,111.67 51.15,118.00 53.75,118.00 C55.36,118.00 57.00,118.34 57.40,118.75 C57.81,119.16 62.27,120.24 67.32,121.15 ZM 62.69 72.00 C61.86,74.21 60.92,75.00 59.11,75.00 L 56.65 75.00 L 58.83 72.69 C60.42,70.99 61.00,69.12 61.00,65.69 L 61.00 61.00 L 55.43 61.00 C50.23,61.00 49.88,61.15 50.18,63.25 C50.44,65.08 51.03,65.44 53.34,65.17 C55.64,64.90 56.11,65.18 55.83,66.67 C55.35,69.18 50.38,69.65 47.91,67.42 C45.60,65.32 45.42,60.72 47.57,58.57 C48.87,57.27 51.87,57.01 64.82,57.03 C79.96,57.06 80.59,57.15 83.25,59.48 C85.28,61.27 86.00,62.83 86.00,65.45 L 86.00 69.00 L 63.83 69.00 ZM 108.88 73.95 C105.29,76.94 100.84,76.58 97.68,73.03 C96.06,71.21 94.44,70.28 93.52,70.63 C92.33,71.09 92.00,70.42 92.00,67.61 C92.00,65.62 92.40,64.00 92.88,64.00 C93.73,64.00 97.42,68.88 97.47,70.07 C97.55,71.80 101.31,74.09 103.62,73.82 C106.21,73.51 106.26,73.36 106.38,65.50 L 106.50 57.50 L 113.73 57.21 C122.66,56.84 125.00,57.92 125.00,62.38 C125.00,66.13 122.47,69.00 119.17,69.00 C117.27,69.00 117.01,68.48 117.12,64.75 C117.18,62.41 117.46,61.40 117.73,62.50 C118.65,66.19 121.40,66.99 122.99,64.02 C123.83,62.44 123.62,61.62 121.92,59.92 C120.38,58.38 119.50,58.10 118.70,58.90 C118.10,59.51 116.17,60.00 114.42,60.00 C110.71,60.00 109.69,62.22 110.65,68.24 C111.15,71.37 110.86,72.30 108.88,73.95 ZM 64.70 65.37 C65.09,65.76 69.02,65.95 73.44,65.79 C81.40,65.50 81.46,65.48 81.67,62.75 L 81.88 60.00 L 72.94 60.00 C64.24,60.00 64.00,60.06 64.00,62.33 C64.00,63.62 64.32,64.98 64.70,65.37 ZM 134.37 67.31 C132.26,71.62 131.21,72.75 129.33,72.75 C127.37,72.75 127.21,72.56 128.43,71.62 C130.25,70.24 132.00,65.71 132.00,62.38 C132.00,60.90 132.43,60.14 133.04,60.53 C133.62,60.88 134.75,60.62 135.57,59.94 C136.38,59.27 137.34,59.00 137.69,59.36 C138.04,59.71 137.78,60.00 137.11,60.00 C136.43,60.00 136.14,60.42 136.46,60.94 C136.78,61.45 135.84,64.32 134.37,67.31 ZM 42.74 71.25 C44.19,72.86 44.14,73.00 42.11,73.00 C40.40,73.00 39.27,71.63 36.99,66.81 C35.37,63.40 34.20,60.46 34.38,60.28 C35.48,59.19 38.08,61.75 39.51,65.33 C40.42,67.62 41.87,70.29 42.74,71.25 ZM 121.89 51.00 C122.97,51.63 120.38,51.91 114.00,51.85 C103.96,51.76 100.69,51.31 101.42,50.12 C102.06,49.10 119.94,49.86 121.89,51.00 ZM 99.66 55.32 C99.92,55.59 99.99,57.53 99.82,59.65 L 99.50 63.50 L 98.09 61.02 C97.32,59.66 95.99,57.86 95.15,57.02 C93.78,55.66 93.91,55.47 96.40,55.17 C97.93,55.00 99.40,55.06 99.66,55.32 ZM 82.00 50.00 C82.00,50.56 79.26,50.99 75.75,50.98 C71.35,50.97 69.94,50.68 71.00,50.00 C72.98,48.72 82.00,48.72 82.00,50.00 ZM 147.00 64.19 C147.00,64.64 145.84,65.00 144.43,65.00 C142.23,65.00 141.96,64.68 142.56,62.75 C142.94,61.51 143.45,60.28 143.71,60.00 C144.23,59.43 147.00,62.96 147.00,64.19 ZM 28.98 63.75 C29.00,65.15 25.41,65.47 24.59,64.15 C24.30,63.68 24.72,62.44 25.51,61.40 C26.77,59.75 27.10,59.70 27.97,61.00 C28.52,61.83 28.98,63.06 28.98,63.75 ZM 86.00 56.43 C86.00,57.36 85.14,58.00 83.89,58.00 C82.38,58.00 81.96,57.55 82.39,56.42 C82.73,55.55 83.00,54.17 83.00,53.35 C83.00,52.03 83.18,52.03 84.50,53.36 C85.32,54.18 86.00,55.56 86.00,56.43 ZM 121.92 74.36 C120.77,75.35 113.00,75.92 113.00,75.01 C113.00,74.46 115.10,74.00 117.67,74.00 C120.23,74.00 122.15,74.16 121.92,74.36 ZM 90.00 50.00 C90.00,50.55 89.10,51.00 88.00,51.00 C86.90,51.00 86.00,50.55 86.00,50.00 C86.00,49.45 86.90,49.00 88.00,49.00 C89.10,49.00 90.00,49.45 90.00,50.00 Z" fill="rgb(27,34,176)"/>
<path d="M 62.69 72.00 L 62.75 71.85 C61.80,76.36 61.87,92.88 63.00,95.50 C63.76,97.27 63.87,97.19 63.93,94.75 C64.02,91.32 65.57,91.16 66.41,94.50 C67.03,96.98 67.14,97.00 77.96,97.00 C84.16,97.00 89.15,97.43 89.50,98.00 C89.84,98.55 89.64,99.00 89.06,99.00 C88.48,99.00 88.00,99.45 88.00,100.00 C88.00,100.55 89.73,101.00 91.85,101.00 C95.60,101.00 99.84,103.83 98.34,105.33 C97.97,105.70 89.02,106.00 78.46,106.00 C63.22,106.00 59.00,105.71 58.08,104.60 C57.31,103.67 56.97,98.41 57.05,88.67 C57.12,80.82 57.23,77.07 57.69,75.00 L 59.11 75.00 C60.92,75.00 61.86,74.21 62.69,72.00 ZM 121.89 51.00 C120.40,50.13 109.61,49.48 104.32,49.68 C105.50,49.60 106.97,49.58 108.67,49.63 C113.03,49.78 115.74,49.44 116.22,48.68 C116.63,48.03 116.98,43.34 116.98,38.25 L 117.00 29.00 L 111.75 28.84 C108.86,28.76 104.70,28.71 102.50,28.74 C100.30,28.77 90.25,28.84 80.16,28.89 L 61.82 29.00 L 62.16 39.80 C62.49,50.40 62.46,50.61 60.25,50.79 C58.03,50.97 58.00,50.80 58.00,39.19 C58.00,31.35 58.40,27.00 59.20,26.20 C59.89,25.51 63.20,25.00 67.00,25.00 C70.80,25.00 74.11,24.49 74.80,23.80 C75.46,23.14 76.00,23.03 76.00,23.55 C76.00,24.07 78.36,24.55 81.25,24.62 C84.14,24.68 87.62,24.84 89.00,24.96 C90.38,25.09 94.20,24.75 97.50,24.21 C101.58,23.54 103.91,23.56 104.79,24.27 C105.50,24.84 108.95,25.35 112.46,25.40 C115.96,25.46 119.21,25.87 119.67,26.33 C120.13,26.79 120.65,32.41 120.84,38.83 C121.06,46.23 121.61,50.77 122.34,51.23 C122.54,51.36 122.23,51.47 121.55,51.56 C122.18,51.42 122.29,51.23 121.89,51.00 ZM 107.00 105.69 C107.00,107.87 105.67,107.24 97.92,101.40 C90.61,95.87 71.02,77.21 71.01,75.75 C71.00,75.34 73.93,75.00 77.50,75.00 C82.43,75.00 84.00,75.34 84.00,76.41 C84.00,77.19 87.06,80.90 90.81,84.66 C98.11,91.99 107.00,103.54 107.00,105.69 ZM 116.93 75.41 C115.79,75.89 115.42,76.61 115.32,78.00 C115.21,79.44 115.35,79.76 115.64,78.75 C115.94,77.70 117.12,77.00 118.60,77.00 L 121.05 77.00 L 120.50 105.50 L 115.45 105.80 C111.43,106.03 110.02,105.68 108.60,104.11 C107.61,103.02 107.10,101.64 107.47,101.06 C107.83,100.47 107.42,99.72 106.56,99.39 C103.81,98.33 104.89,97.00 108.50,97.00 L 112.00 97.00 L 112.12 87.00 C112.19,81.50 112.31,76.44 112.38,75.75 C112.40,75.49 112.62,75.26 113.01,75.07 C113.16,75.47 114.97,75.54 116.93,75.41 ZM 152.50 30.24 C155.08,33.00 157.00,35.36 157.00,36.03 C157.00,36.56 157.37,37.00 157.82,37.00 C158.26,37.00 159.64,38.80 160.88,41.00 C162.12,43.20 162.80,45.00 162.41,45.00 C162.01,45.00 162.40,45.79 163.28,46.75 C165.94,49.69 166.94,53.64 167.15,61.98 C167.30,68.22 166.98,70.36 165.68,71.80 C164.77,72.81 163.56,76.05 163.00,79.00 C162.43,82.00 161.10,85.19 159.99,86.22 C158.90,87.24 157.99,88.40 157.98,88.79 C157.97,89.18 156.40,91.30 154.48,93.49 C152.57,95.68 151.00,98.27 151.00,99.24 C151.00,100.21 150.66,101.00 150.25,101.00 C149.84,101.00 148.20,102.12 146.62,103.48 C145.04,104.84 143.37,105.73 142.91,105.45 C142.46,105.17 139.93,106.46 137.30,108.32 C129.11,114.10 117.91,118.78 108.00,120.56 C102.17,121.61 96.69,122.28 91.42,122.58 C93.53,122.42 95.71,122.20 98.00,121.91 C110.38,120.34 112.58,119.86 120.50,117.00 C136.84,111.10 153.03,97.19 159.37,83.62 C163.66,74.43 164.26,72.07 164.37,63.73 C164.52,52.41 160.86,40.89 155.29,35.18 C154.58,34.45 154.00,33.28 154.00,32.57 C154.00,32.17 153.44,31.34 152.50,30.24 ZM 56.21 118.26 C55.52,118.10 54.63,118.00 53.75,118.00 C51.15,118.00 37.83,111.67 34.00,108.61 C33.17,107.95 31.15,106.76 29.50,105.96 C23.36,102.98 7.00,82.74 7.00,78.14 C7.00,77.21 6.38,75.56 5.62,74.47 C4.00,72.16 4.23,58.31 5.94,55.11 C6.52,54.02 7.00,51.41 7.00,49.30 C7.00,46.84 7.91,44.12 9.55,41.71 C10.95,39.65 11.82,37.51 11.47,36.96 C11.13,36.40 11.27,36.07 11.78,36.23 C12.63,36.48 20.00,27.69 20.00,26.42 C20.00,25.78 23.32,22.32 23.43,22.84 C23.57,23.50 29.52,20.60 31.50,18.91 C34.37,16.45 39.80,13.68 46.17,11.18 C39.49,13.92 33.57,17.22 29.08,20.86 C20.93,27.46 13.00,36.23 13.00,38.63 C13.00,39.29 12.65,39.98 12.21,40.17 C11.78,40.35 10.37,42.97 9.07,46.00 C6.39,52.27 5.04,68.08 6.79,72.75 C7.35,74.26 8.15,76.40 8.56,77.50 C8.97,78.60 9.41,80.02 9.55,80.64 C10.27,84.00 16.29,92.33 22.48,98.52 C31.00,107.03 39.78,112.98 46.38,114.69 C49.08,115.39 53.14,116.84 55.40,117.91 C55.63,118.02 55.90,118.14 56.21,118.26 ZM 108.00 43.00 C108.00,43.63 101.33,44.00 90.00,44.00 C78.67,44.00 72.00,43.63 72.00,43.00 C72.00,42.37 78.67,42.00 90.00,42.00 C101.33,42.00 108.00,42.37 108.00,43.00 ZM 66.18 42.25 C66.21,42.97 66.24,43.64 66.27,44.25 C66.47,49.06 66.53,50.54 66.20,50.64 C66.05,50.68 65.82,50.44 65.49,50.10 C65.40,50.00 65.29,49.89 65.18,49.78 C63.78,48.38 63.55,34.00 64.92,34.00 C65.43,34.00 66.00,37.71 66.18,42.25 ZM 108.50 82.00 C108.16,82.55 104.31,83.00 99.94,83.00 C95.31,83.00 92.00,82.58 92.00,82.00 C92.00,81.41 95.52,81.00 100.56,81.00 C106.01,81.00 108.89,81.36 108.50,82.00 ZM 103.41 75.96 C102.39,75.97 101.21,75.97 99.86,75.97 C92.04,75.95 89.95,75.68 91.33,74.87 C92.34,74.29 94.03,74.04 95.08,74.31 C96.48,74.68 97.00,74.29 97.00,72.91 C97.00,72.67 96.98,72.46 96.95,72.26 C97.19,72.50 97.44,72.75 97.68,73.03 C99.34,74.89 101.35,75.88 103.41,75.96 ZM 108.00 88.00 C108.00,88.55 105.75,89.00 103.00,89.00 C100.25,89.00 98.00,88.55 98.00,88.00 C98.00,87.45 100.25,87.00 103.00,87.00 C105.75,87.00 108.00,87.45 108.00,88.00 ZM 121.50 65.63 C120.04,66.34 118.40,65.19 117.73,62.50 C117.46,61.40 117.18,62.41 117.12,64.75 C117.06,66.90 117.12,67.98 117.54,68.51 C117.10,67.99 117.00,66.94 117.00,64.92 C117.00,60.41 118.65,59.97 120.65,63.95 ZM 66.00 86.00 C66.00,87.65 65.55,89.00 65.00,89.00 C64.45,89.00 64.00,87.65 64.00,86.00 C64.00,84.35 64.45,83.00 65.00,83.00 C65.55,83.00 66.00,84.35 66.00,86.00 ZM 108.88 73.95 C109.17,73.71 109.43,73.48 109.65,73.26 C109.46,73.53 109.44,73.99 109.64,74.50 C110.03,75.53 109.15,75.87 104.17,75.95 C105.79,75.84 107.40,75.18 108.88,73.95 ZM 63.21 70.64 L 63.83 69.00 L 75.04 69.00 C65.81,69.00 64.14,69.18 63.21,70.64 ZM 93.63 3.47 C99.52,3.92 105.35,4.87 111.00,6.29 C105.67,5.10 99.14,4.04 93.63,3.47 ZM 101.38 50.21 C100.85,51.33 104.20,51.77 114.00,51.85 C114.07,51.85 114.15,51.85 114.22,51.86 C109.51,51.88 104.24,51.70 102.74,51.31 C101.19,50.90 100.82,50.51 101.38,50.21 ZM 109.79 73.12 C110.52,72.34 110.84,71.62 110.87,70.55 C110.95,72.17 110.71,73.00 110.17,73.00 C110.02,73.00 109.89,73.04 109.79,73.12 ZM 63.69 120.45 C60.29,119.75 57.70,119.06 57.40,118.75 C57.37,118.72 57.33,118.69 57.29,118.66 C59.01,119.25 61.31,119.90 63.69,120.45 ZM 94.98 70.83 C94.50,70.80 93.93,70.84 93.25,70.93 C93.03,70.95 92.84,70.88 92.67,70.71 C92.89,70.80 93.16,70.77 93.52,70.63 C93.90,70.49 94.40,70.56 94.98,70.83 ZM 140.88 19.70 C141.27,19.97 141.66,20.25 142.04,20.53 C143.49,21.60 145.37,23.23 147.29,25.04 C145.24,23.17 142.97,21.26 140.88,19.70 ZM 64.08 5.60 C66.95,4.93 69.74,4.40 72.32,4.05 C72.81,3.99 73.30,3.93 73.79,3.87 C70.55,4.30 67.30,4.88 64.08,5.60 ZM 110.48 67.05 C110.16,64.49 110.28,62.73 110.91,61.61 C110.33,62.71 110.22,64.45 110.48,67.05 ZM 92.00 67.58 L 92.00 67.54 C92.00,65.60 92.40,64.00 92.88,64.00 C92.40,64.00 92.00,65.61 92.00,67.58 ZM 123.44 62.82 C123.38,63.19 123.23,63.57 122.99,64.02 C122.98,64.04 122.97,64.06 122.96,64.07 C123.21,63.60 123.38,63.19 123.44,62.82 ZM 58.61 72.92 C58.72,72.78 58.83,72.66 58.96,72.54 C58.91,72.59 58.87,72.64 58.83,72.69 Z" fill="rgb(24,38,226)"/>
<path d="M 67.32 121.15 C66.06,120.93 64.83,120.69 63.69,120.45 C61.31,119.90 59.01,119.25 57.29,118.66 C57.07,118.51 56.68,118.37 56.21,118.26 C55.90,118.14 55.63,118.02 55.40,117.91 C53.14,116.84 49.08,115.39 46.38,114.69 C39.78,112.98 31.00,107.03 22.48,98.52 C16.29,92.33 10.27,84.00 9.55,80.64 C9.41,80.02 8.97,78.60 8.56,77.50 C8.15,76.40 7.35,74.26 6.79,72.75 C5.04,68.08 6.39,52.27 9.07,46.00 C10.37,42.97 11.78,40.35 12.21,40.17 C12.65,39.98 13.00,39.29 13.00,38.63 C13.00,36.23 20.93,27.46 29.08,20.86 C33.57,17.22 39.49,13.92 46.17,11.18 C51.77,8.98 58.10,6.99 64.08,5.60 C67.30,4.88 70.55,4.30 73.79,3.87 C80.37,3.08 87.04,2.96 93.63,3.47 C99.14,4.04 105.67,5.10 111.00,6.29 C121.96,9.05 132.22,13.59 140.88,19.70 C142.97,21.26 145.24,23.17 147.29,25.04 C149.08,26.72 150.91,28.55 152.50,30.24 C153.44,31.34 154.00,32.17 154.00,32.57 C154.00,33.28 154.58,34.45 155.29,35.18 C160.86,40.89 164.52,52.41 164.37,63.73 C164.26,72.07 163.66,74.43 159.37,83.62 C153.03,97.19 136.84,111.10 120.50,117.00 C112.58,119.86 110.38,120.34 98.00,121.91 C95.71,122.20 93.53,122.42 91.42,122.58 C83.04,123.05 75.19,122.57 67.32,121.15 ZM 99.66 55.32 C99.40,55.06 97.93,55.00 96.40,55.17 C93.91,55.47 93.78,55.66 95.15,57.02 C95.75,57.61 96.59,58.69 97.30,59.75 C96.53,58.76 95.61,57.63 94.77,56.66 C93.26,54.92 92.02,53.16 92.02,52.75 C92.01,52.34 90.65,52.00 89.00,52.00 L 86.00 52.00 L 86.00 65.45 C86.00,62.83 85.28,61.27 83.25,59.48 C80.59,57.15 79.96,57.06 64.82,57.03 C64.60,57.03 64.38,57.03 64.16,57.03 C64.51,57.02 64.86,57.01 65.21,57.00 L 82.36 56.50 C81.98,57.57 82.42,58.00 83.89,58.00 C85.14,58.00 86.00,57.36 86.00,56.43 C86.00,55.56 85.32,54.18 84.50,53.36 C83.18,52.03 83.00,52.03 83.00,53.35 C83.00,54.03 82.81,55.10 82.55,55.94 L 82.79 53.50 L 83.09 50.50 L 81.12 50.52 C81.68,50.37 82.00,50.19 82.00,50.00 C82.00,48.72 72.98,48.72 71.00,50.00 C70.61,50.25 70.55,50.45 70.87,50.60 L 67.29 50.63 C64.84,50.65 62.63,50.69 60.64,50.76 C62.46,50.54 62.47,49.73 62.16,39.80 L 61.82 29.00 L 80.16 28.89 C90.25,28.84 100.30,28.77 102.50,28.74 C104.70,28.71 108.86,28.76 111.75,28.84 L 117.00 29.00 L 116.98 38.25 C116.98,43.34 116.63,48.03 116.22,48.68 C115.74,49.44 113.03,49.78 108.67,49.63 C106.97,49.58 105.50,49.60 104.32,49.68 C102.68,49.74 101.57,49.88 101.42,50.12 C101.41,50.15 101.39,50.18 101.38,50.21 C100.82,50.51 101.19,50.90 102.74,51.31 C104.24,51.70 109.51,51.88 114.22,51.86 C118.09,51.89 120.52,51.79 121.55,51.56 C122.23,51.47 122.54,51.36 122.34,51.23 C121.61,50.77 121.06,46.23 120.84,38.83 C120.65,32.41 120.13,26.79 119.67,26.33 C119.21,25.87 115.96,25.46 112.46,25.40 C108.95,25.35 105.50,24.84 104.79,24.27 C103.91,23.56 101.58,23.54 97.50,24.21 C94.20,24.75 90.38,25.09 89.00,24.96 C87.62,24.84 84.14,24.68 81.25,24.62 C78.36,24.55 76.00,24.07 76.00,23.55 C76.00,23.03 75.46,23.14 74.80,23.80 C74.11,24.49 70.80,25.00 67.00,25.00 C63.20,25.00 59.89,25.51 59.20,26.20 C58.40,27.00 58.00,31.35 58.00,39.19 C58.00,48.86 58.02,50.60 59.31,50.80 C48.10,51.24 44.36,52.60 41.62,56.29 C37.21,62.24 40.02,71.20 47.09,73.70 C50.88,75.04 55.34,74.54 58.75,72.38 C59.07,72.18 59.34,71.98 59.58,71.76 C59.39,72.03 59.19,72.29 58.96,72.54 C58.83,72.66 58.72,72.78 58.61,72.92 L 56.65 75.00 L 57.69 75.00 C57.23,77.07 57.12,80.82 57.05,88.67 C56.97,98.41 57.31,103.67 58.08,104.60 C59.00,105.71 63.22,106.00 78.46,106.00 C89.02,106.00 97.97,105.70 98.34,105.33 C99.84,103.83 95.60,101.00 91.85,101.00 C89.73,101.00 88.00,100.55 88.00,100.00 C88.00,99.45 88.48,99.00 89.06,99.00 C89.64,99.00 89.84,98.55 89.50,98.00 C89.15,97.43 84.16,97.00 77.96,97.00 C67.14,97.00 67.03,96.98 66.41,94.50 C65.57,91.16 64.02,91.32 63.93,94.75 C63.87,97.19 63.76,97.27 63.00,95.50 C61.87,92.88 61.80,76.36 62.75,71.85 L 63.21 70.64 C63.52,70.15 63.92,69.80 64.67,69.56 C64.02,69.90 64.00,70.45 64.00,71.33 C64.00,72.62 64.31,73.98 64.69,74.36 C65.08,74.74 71.26,74.93 78.44,74.78 L 91.50 74.50 L 91.80 69.25 C91.85,68.39 91.93,67.58 92.02,66.87 C92.01,67.09 92.00,67.31 92.00,67.54 L 92.00 67.58 L 92.00 67.61 C92.00,69.58 92.16,70.50 92.67,70.71 C92.84,70.88 93.03,70.95 93.25,70.93 C93.93,70.84 94.50,70.80 94.98,70.83 C95.58,71.11 96.25,71.60 96.95,72.26 C96.98,72.46 97.00,72.67 97.00,72.91 C97.00,74.29 96.48,74.68 95.08,74.31 C94.03,74.04 92.34,74.29 91.33,74.87 C89.95,75.68 92.04,75.95 99.86,75.97 C101.21,75.97 102.39,75.97 103.41,75.96 C103.66,75.97 103.92,75.97 104.17,75.95 C109.15,75.87 110.03,75.53 109.64,74.50 C109.44,73.99 109.46,73.53 109.65,73.26 C109.70,73.21 109.74,73.16 109.79,73.12 C109.89,73.04 110.02,73.00 110.17,73.00 C110.71,73.00 110.95,72.17 110.87,70.55 C110.87,70.54 110.87,70.53 110.87,70.52 L 111.30 74.20 L 118.65 73.83 C125.07,73.51 126.34,73.12 128.75,70.71 C129.73,69.72 130.37,68.95 130.77,68.06 C130.12,69.64 129.29,70.98 128.43,71.62 C127.21,72.56 127.37,72.75 129.33,72.75 C131.05,72.75 132.08,71.80 133.86,68.33 C132.77,70.64 132.00,72.54 132.00,72.97 C132.00,74.90 137.92,74.10 139.23,72.00 C139.98,70.80 141.56,70.00 143.19,70.00 C146.29,70.00 151.00,71.91 151.00,73.16 C151.00,73.62 152.35,74.00 154.00,74.00 C155.65,74.00 157.00,73.65 157.00,73.22 C157.00,72.07 150.39,56.60 148.84,54.12 C146.16,49.82 138.13,52.90 138.03,58.28 C138.03,58.53 137.94,58.93 137.78,59.46 C137.75,59.43 137.73,59.39 137.69,59.36 C137.34,59.00 136.38,59.27 135.57,59.94 C134.75,60.62 133.62,60.88 133.04,60.53 C132.43,60.14 132.00,60.90 132.00,62.38 C132.00,63.99 131.59,65.89 130.96,67.57 C131.35,66.42 131.41,65.01 131.34,62.75 C131.20,58.30 130.74,57.15 128.08,54.78 C125.03,52.06 124.72,52.00 112.48,52.00 L 100.00 52.00 L 99.94 57.75 C99.91,60.45 99.84,61.84 99.60,62.26 L 99.82 59.65 C99.99,57.53 99.92,55.59 99.66,55.32 ZM 34.33 26.41 C34.93,27.98 36.20,28.14 45.67,27.84 C53.06,27.60 56.46,27.12 56.75,26.25 C57.03,25.41 59.45,25.00 64.13,25.00 C69.70,25.00 71.51,24.60 73.23,23.00 C74.57,21.75 76.76,21.00 79.07,21.00 C81.13,21.00 83.31,20.34 84.00,19.50 C84.71,18.65 86.89,18.00 89.05,18.00 C91.14,18.00 93.53,18.67 94.36,19.50 C95.18,20.33 97.62,21.00 99.77,21.00 C102.42,21.00 104.28,21.65 105.50,23.00 C106.94,24.59 108.58,25.00 113.54,25.00 C117.12,25.00 120.99,25.64 122.64,26.49 C126.62,28.57 135.87,28.51 136.68,26.40 C138.18,22.49 123.80,13.78 109.30,9.81 C97.53,6.59 73.96,6.62 61.50,9.87 C50.62,12.71 43.13,16.23 37.70,21.04 C34.75,23.66 33.83,25.12 34.33,26.41 ZM 33.57 73.43 C34.51,74.36 34.94,74.81 35.43,74.90 C35.87,74.99 36.37,74.80 37.32,74.43 L 37.42 74.39 C39.75,73.50 39.44,72.14 34.49,61.53 C30.12,52.18 29.88,51.88 26.92,52.19 C24.33,52.45 23.44,53.34 21.09,58.00 C17.83,64.46 14.00,72.85 14.00,73.53 C14.00,73.79 15.35,74.00 16.99,74.00 C18.90,74.00 20.44,73.28 21.23,72.00 C22.20,70.46 23.56,70.00 27.24,70.00 C29.86,70.00 32.00,70.42 32.00,70.93 C32.00,71.44 32.71,72.56 33.57,73.43 ZM 107.00 105.69 C107.00,103.54 98.11,91.99 90.81,84.66 C87.06,80.90 84.00,77.19 84.00,76.41 C84.00,75.34 82.43,75.00 77.50,75.00 C73.93,75.00 71.00,75.34 71.01,75.75 C71.02,77.21 90.61,95.87 97.92,101.40 C105.67,107.24 107.00,107.87 107.00,105.69 ZM 121.92 74.36 C122.15,74.16 120.23,74.00 117.67,74.00 C115.10,74.00 113.00,74.46 113.00,75.01 C113.00,75.03 113.00,75.05 113.01,75.07 C112.62,75.26 112.40,75.49 112.38,75.75 C112.31,76.44 112.19,81.50 112.12,87.00 L 112.00 97.00 L 108.50 97.00 C104.89,97.00 103.81,98.33 106.56,99.39 C107.42,99.72 107.83,100.47 107.47,101.06 C107.10,101.64 107.61,103.02 108.60,104.11 C110.02,105.68 111.43,106.03 115.45,105.80 L 120.50 105.50 L 121.05 77.00 L 118.60 77.00 C117.12,77.00 115.94,77.70 115.64,78.75 C115.35,79.76 115.21,79.44 115.32,78.00 C115.42,76.61 115.79,75.89 116.93,75.41 C119.04,75.26 121.34,74.86 121.92,74.36 ZM 108.00 43.00 C108.00,42.37 101.33,42.00 90.00,42.00 C78.67,42.00 72.00,42.37 72.00,43.00 C72.00,43.63 78.67,44.00 90.00,44.00 C101.33,44.00 108.00,43.63 108.00,43.00 ZM 42.74 71.25 C41.87,70.29 40.42,67.62 39.51,65.33 C38.08,61.75 35.48,59.19 34.38,60.28 C34.20,60.46 35.37,63.40 36.99,66.81 C39.27,71.63 40.40,73.00 42.11,73.00 C44.14,73.00 44.19,72.86 42.74,71.25 ZM 121.50 65.63 L 120.65 63.95 C118.65,59.97 117.00,60.41 117.00,64.92 C117.00,65.89 117.02,66.63 117.09,67.21 C116.89,66.55 116.73,65.67 116.55,64.50 C116.02,60.94 115.61,60.11 113.97,60.01 C114.11,60.00 114.26,60.00 114.42,60.00 C116.17,60.00 118.10,59.51 118.70,58.90 C119.50,58.10 120.38,58.38 121.92,59.92 C123.14,61.14 123.59,61.91 123.44,62.82 L 123.44 62.82 C123.38,63.19 123.21,63.60 122.96,64.07 L 122.96 64.07 C122.53,64.85 122.03,65.36 121.50,65.63 ZM 66.18 42.25 C66.00,37.71 65.43,34.00 64.92,34.00 C63.55,34.00 63.78,48.38 65.18,49.78 C65.29,49.89 65.40,50.00 65.49,50.10 C65.82,50.44 66.05,50.68 66.20,50.64 C66.53,50.54 66.47,49.06 66.27,44.25 C66.24,43.64 66.21,42.97 66.18,42.25 ZM 108.50 82.00 C108.89,81.36 106.01,81.00 100.56,81.00 C95.52,81.00 92.00,81.41 92.00,82.00 C92.00,82.58 95.31,83.00 99.94,83.00 C104.31,83.00 108.16,82.55 108.50,82.00 ZM 108.00 88.00 C108.00,87.45 105.75,87.00 103.00,87.00 C100.25,87.00 98.00,87.45 98.00,88.00 C98.00,88.55 100.25,89.00 103.00,89.00 C105.75,89.00 108.00,88.55 108.00,88.00 ZM 66.00 86.00 C66.00,84.35 65.55,83.00 65.00,83.00 C64.45,83.00 64.00,84.35 64.00,86.00 C64.00,87.65 64.45,89.00 65.00,89.00 C65.55,89.00 66.00,87.65 66.00,86.00 ZM 90.00 50.00 C90.00,49.45 89.10,49.00 88.00,49.00 C86.90,49.00 86.00,49.45 86.00,50.00 C86.00,50.55 86.90,51.00 88.00,51.00 C89.10,51.00 90.00,50.55 90.00,50.00 ZM 88.00 23.00 C88.00,23.55 88.68,24.00 89.50,24.00 C90.32,24.00 91.00,23.55 91.00,23.00 C91.00,22.45 90.32,22.00 89.50,22.00 C88.68,22.00 88.00,22.45 88.00,23.00 ZM 94.52 65.40 C96.61,67.58 99.72,71.68 99.98,72.86 C98.62,72.09 97.52,71.00 97.47,70.07 C97.44,69.29 95.85,66.94 94.52,65.40 ZM 137.63 59.91 C137.10,61.48 136.12,63.79 135.00,66.00 C134.96,66.08 134.92,66.16 134.88,66.24 C136.05,63.67 136.74,61.39 136.46,60.94 C136.14,60.42 136.43,60.00 137.11,60.00 C137.33,60.00 137.51,59.97 137.63,59.91 ZM 47.32 58.84 C45.90,60.54 45.70,63.40 46.63,65.58 C46.25,64.75 46.01,63.85 46.02,63.10 C46.03,61.00 46.12,59.69 47.32,58.84 ZM 110.48 67.05 C110.22,64.45 110.33,62.71 110.91,61.61 C110.94,61.56 110.96,61.52 110.99,61.47 C110.43,62.63 110.29,64.52 110.52,67.34 C110.51,67.24 110.50,67.15 110.48,67.05 ZM 119.31 69.00 C120.76,68.96 122.06,68.37 123.05,67.38 C122.09,68.39 120.83,69.00 119.46,69.00 C119.41,69.00 119.36,69.00 119.31,69.00 ZM 102.94 73.83 C103.00,73.83 103.07,73.82 103.13,73.81 L 104.61 73.67 C104.33,73.73 104.00,73.77 103.62,73.82 C103.41,73.84 103.18,73.85 102.94,73.83 ZM 125.00 62.28 C124.99,60.42 124.55,59.15 123.36,58.35 C124.56,59.14 125.00,60.39 125.00,62.21 C125.00,62.23 125.00,62.26 125.00,62.28 ZM 92.66 64.12 C92.70,64.06 92.75,64.02 92.80,64.02 C92.75,64.04 92.70,64.07 92.66,64.12 Z" fill="rgb(45,66,236)"/>
<path d="M 34.33 26.41 C33.83,25.12 34.75,23.66 37.70,21.04 C43.13,16.23 50.62,12.71 61.50,9.87 C73.96,6.62 97.53,6.59 109.30,9.81 C123.80,13.78 138.18,22.49 136.68,26.40 C135.87,28.51 126.62,28.57 122.64,26.49 C120.99,25.64 117.12,25.00 113.54,25.00 C108.58,25.00 106.94,24.59 105.50,23.00 C104.28,21.65 102.42,21.00 99.77,21.00 C97.62,21.00 95.18,20.33 94.36,19.50 C93.53,18.67 91.14,18.00 89.05,18.00 C86.89,18.00 84.71,18.65 84.00,19.50 C83.31,20.34 81.13,21.00 79.07,21.00 C76.76,21.00 74.57,21.75 73.23,23.00 C71.51,24.60 69.70,25.00 64.13,25.00 C59.45,25.00 57.03,25.41 56.75,26.25 C56.46,27.12 53.06,27.60 45.67,27.84 C36.20,28.14 34.93,27.98 34.33,26.41 ZM 0.00 0.00 L 0.14 58.50 L 2.09 51.68 C2.42,50.52 2.75,49.42 3.10,48.37 C0.02,58.55 0.33,69.65 3.93,79.65 C3.17,77.74 2.50,75.75 1.90,73.65 L 0.14 67.50 L 0.00 125.00 ZM 88.00 23.00 C88.00,22.45 88.68,22.00 89.50,22.00 C90.32,22.00 91.00,22.45 91.00,23.00 C91.00,23.55 90.32,24.00 89.50,24.00 C88.68,24.00 88.00,23.55 88.00,23.00 ZM 10.51 33.58 C11.04,32.83 11.59,32.06 12.18,31.26 C16.44,25.49 22.74,19.95 30.27,15.16 C22.31,20.41 15.48,26.71 10.51,33.58 ZM 25.27 106.83 C34.09,113.36 45.08,118.56 58.24,122.45 C44.18,118.29 33.87,113.47 25.27,106.83 ZM 136.79 12.16 C131.49,9.23 123.61,6.07 116.46,3.82 C124.39,6.16 130.94,8.82 136.79,12.16 ZM 60.68 2.08 L 65.42 0.72 C66.34,0.81 66.57,0.90 66.00,1.00 C64.22,1.30 62.44,1.66 60.68,2.08 ZM 164.42 39.74 C160.25,32.22 153.71,24.63 146.30,18.63 C147.84,19.87 149.35,21.18 150.85,22.57 C156.30,27.61 161.12,33.76 164.42,39.74 ZM 108.00 1.53 C107.26,1.37 106.55,1.24 105.89,1.13 C105.17,1.01 104.94,0.90 105.21,0.80 Z" fill="rgb(132,143,235)"/>
<path d="M 0.07 96.25 L 0.14 67.50 L 1.90 73.65 C4.68,83.35 8.94,90.73 16.32,98.64 C26.76,109.82 38.97,116.75 58.24,122.45 L 66.50 124.89 L 33.25 124.95 L 0.00 125.00 L 0.07 96.25 ZM 111.50 123.04 C142.45,114.86 164.34,95.93 169.04,73.30 C170.54,66.08 169.80,53.00 167.53,46.56 C164.76,38.70 158.42,29.57 150.85,22.57 C140.22,12.73 129.08,7.03 111.50,2.44 L 102.50 0.10 L 137.25 0.05 L 172.00 0.00 L 172.00 62.50 L 172.00 125.00 L 138.25 124.94 L 104.50 124.89 L 111.50 123.04 ZM 33.57 73.43 C32.71,72.56 32.00,71.44 32.00,70.93 C32.00,70.42 29.86,70.00 27.24,70.00 C23.56,70.00 22.20,70.46 21.23,72.00 C20.44,73.28 18.90,74.00 16.99,74.00 C15.35,74.00 14.00,73.79 14.00,73.53 C14.00,72.85 17.83,64.46 21.09,58.00 C23.44,53.34 24.33,52.45 26.92,52.19 C29.88,51.88 30.12,52.18 34.49,61.53 C39.44,72.14 39.75,73.50 37.42,74.39 C35.30,75.21 35.36,75.22 33.57,73.43 ZM 28.98 63.75 C28.98,63.06 28.52,61.83 27.97,61.00 C27.10,59.70 26.77,59.75 25.51,61.40 C24.72,62.44 24.30,63.68 24.59,64.15 C25.41,65.47 29.00,65.15 28.98,63.75 ZM 47.09 73.70 C40.02,71.20 37.21,62.24 41.62,56.29 C44.93,51.83 49.70,50.78 67.29,50.63 L 83.09 50.50 L 82.79 53.50 L 82.50 56.50 L 65.21 57.00 C46.58,57.54 46.05,57.71 46.02,63.10 C46.01,64.52 46.86,66.47 47.91,67.42 C50.38,69.65 55.35,69.18 55.83,66.67 C56.11,65.18 55.64,64.90 53.34,65.17 C51.03,65.44 50.44,65.08 50.18,63.25 C49.88,61.15 50.23,61.00 55.43,61.00 L 61.00 61.00 L 61.00 65.98 C61.00,70.05 60.59,71.21 58.75,72.38 C55.34,74.54 50.88,75.04 47.09,73.70 ZM 64.69 74.36 C64.31,73.98 64.00,72.62 64.00,71.33 C64.00,69.03 64.14,69.00 75.00,69.00 L 86.00 69.00 L 86.00 60.50 L 86.00 52.00 L 89.00 52.00 C90.65,52.00 92.01,52.34 92.02,52.75 C92.02,53.16 93.26,54.92 94.77,56.66 C96.27,58.39 98.04,60.64 98.69,61.66 C99.69,63.20 99.89,62.58 99.94,57.75 L 100.00 52.00 L 112.48 52.00 C124.72,52.00 125.03,52.06 128.08,54.78 C130.74,57.15 131.20,58.30 131.34,62.75 C131.48,67.21 131.11,68.35 128.75,70.71 C126.34,73.12 125.07,73.51 118.65,73.83 L 111.30 74.20 L 110.71 69.22 C109.91,62.47 110.68,60.00 113.56,60.00 C115.54,60.00 115.98,60.65 116.55,64.50 C117.12,68.29 117.58,69.00 119.46,69.00 C122.53,69.00 125.00,65.97 125.00,62.21 C125.00,57.93 122.55,56.85 113.73,57.21 L 106.50 57.50 L 106.38 65.50 L 106.26 73.50 L 103.13 73.81 C101.28,74.00 100.00,73.66 100.00,73.00 C100.00,71.70 93.86,64.05 92.80,64.02 C92.42,64.01 91.97,66.36 91.80,69.25 L 91.50 74.50 L 78.44 74.78 C71.26,74.93 65.08,74.74 64.69,74.36 ZM 132.00 72.97 C132.00,72.41 133.35,69.27 135.00,66.00 C136.65,62.73 138.01,59.26 138.03,58.28 C138.13,52.90 146.16,49.82 148.84,54.12 C150.39,56.60 157.00,72.07 157.00,73.22 C157.00,73.65 155.65,74.00 154.00,74.00 C152.35,74.00 151.00,73.62 151.00,73.16 C151.00,71.91 146.29,70.00 143.19,70.00 C141.56,70.00 139.98,70.80 139.23,72.00 C137.92,74.10 132.00,74.90 132.00,72.97 ZM 147.00 64.19 C147.00,62.96 144.23,59.43 143.71,60.00 C143.45,60.28 142.94,61.51 142.56,62.75 C141.96,64.68 142.23,65.00 144.43,65.00 C145.84,65.00 147.00,64.64 147.00,64.19 ZM 64.70 65.37 C64.32,64.98 64.00,63.62 64.00,62.33 C64.00,60.06 64.24,60.00 72.94,60.00 L 81.88 60.00 L 81.67 62.75 C81.46,65.48 81.40,65.50 73.44,65.79 C69.02,65.95 65.09,65.76 64.70,65.37 ZM 0.07 29.25 L 0.00 0.00 L 33.75 0.06 L 67.50 0.12 L 57.63 2.95 C38.49,8.43 21.00,19.32 12.18,31.26 C6.99,38.29 4.43,43.46 2.09,51.68 L 0.14 58.50 L 0.07 29.25 Z" fill="rgb(247,250,252)"/>
</g>
</svg>