<svg xmlns="http://www.w3.org/2000/svg" width="159" height="168" viewBox="0 0 159 168">
<g>
<path d="M 10.26 158.97 C9.02,158.48 7.11,156.59 6.01,154.78 C4.06,151.58 4.01,149.80 4.04,80.50 C4.07,14.80 3.92,7.51 7.45,4.41 C8.04,3.89 8.74,3.49 9.57,2.95 C12.34,1.12 14.64,1.01 51.97,1.01 L 91.44 1.00 L 109.24 18.80 L 127.04 36.60 L 126.77 57.55 L 126.50 78.50 L 118.50 78.50 L 117.50 41.50 L 104.66 41.00 C92.10,40.51 91.77,40.44 89.41,37.69 C87.15,35.07 87.00,34.12 87.00,22.94 L 87.00 11.00 L 14.00 11.00 L 13.77 75.75 C13.53,145.99 13.47,148.98 14.83,149.92 C14.94,149.99 15.05,150.05 15.17,150.13 C15.90,150.59 31.26,150.98 49.31,150.98 L 82.12 151.00 L 86.56 154.71 C89.00,156.75 91.00,158.78 91.00,159.21 C91.00,160.31 13.01,160.08 10.26,158.97 Z" fill="rgba(58,58,80,1)"/>
<path d="M 109.93 158.70 C95.08,154.48 84.20,141.33 83.22,126.42 C82.19,110.68 89.55,98.01 104.21,90.29 C109.02,87.75 110.45,87.50 120.00,87.50 C129.58,87.50 130.97,87.75 135.84,90.31 C147.28,96.34 153.94,105.24 156.04,117.33 C158.90,133.74 150.60,149.87 135.88,156.47 C128.61,159.74 117.07,160.72 109.93,158.70 ZM 127.78 133.81 L 128.06 122.12 L 131.28 121.81 C136.55,121.30 135.88,118.54 127.98,108.25 C124.07,103.16 120.47,99.00 119.97,99.00 C119.47,99.00 115.88,103.12 111.98,108.16 C104.03,118.45 103.36,121.29 108.75,121.81 L 112.00 122.13 L 112.00 133.40 C112.00,139.60 112.32,144.98 112.71,145.37 C113.09,145.76 116.58,145.95 120.46,145.79 L 127.50 145.50 L 127.78 133.81 Z" fill="rgba(79,127,175,1)"/>
</g>
</svg>