<svg xmlns="http://www.w3.org/2000/svg" width="224" height="161" viewBox="0 0 224 161">
<g>
<path d="M 89.46 143.44 C87.62,144.64 85.23,145.02 80.86,144.80 C77.53,144.64 68.43,144.24 60.65,143.92 C44.09,143.23 39.89,142.22 31.45,136.89 C22.19,131.05 17.41,124.70 11.50,110.44 C8.38,102.91 7.86,100.63 8.21,96.00 C8.60,90.82 11.67,82.34 12.76,83.43 C13.03,83.70 12.73,86.03 12.08,88.61 C10.43,95.15 12.09,96.41 15.41,91.13 C16.84,88.88 18.00,86.79 18.00,86.50 C18.00,86.20 19.58,83.66 21.50,80.86 C25.67,74.81 25.78,74.00 22.50,74.00 C19.57,74.00 19.32,72.92 21.75,70.75 C25.36,67.54 30.99,65.98 36.58,66.64 C40.69,67.12 42.53,66.88 44.47,65.61 C47.48,63.64 47.75,62.00 45.06,62.00 C42.17,62.00 41.79,60.61 42.95,54.26 C45.07,42.65 55.22,27.40 62.40,25.03 C66.74,23.60 76.79,22.73 90.00,22.63 C99.52,22.56 101.15,22.83 107.43,25.53 C113.28,28.04 115.30,29.61 120.43,35.66 C123.77,39.60 127.27,43.11 128.20,43.46 C129.14,43.82 131.16,43.46 132.70,42.68 C138.22,39.88 147.22,39.01 154.65,40.57 C158.42,41.36 161.68,42.54 161.90,43.19 C162.12,43.85 163.42,45.51 164.79,46.88 C167.50,49.59 173.00,59.97 173.00,62.36 C173.00,65.31 174.26,67.00 176.46,67.00 C180.40,67.00 185.28,69.23 191.23,73.75 C197.83,78.77 200.65,82.19 204.67,90.00 C207.80,96.09 210.20,97.08 210.99,92.59 C211.40,90.25 211.72,89.96 212.61,91.09 C213.23,91.87 214.02,94.41 214.38,96.75 C214.91,100.26 214.52,102.02 212.14,106.75 C210.56,109.91 208.92,113.58 208.51,114.91 C207.20,119.15 200.56,127.80 194.25,133.51 C184.68,142.18 182.79,142.72 159.38,143.55 C148.31,143.94 137.17,143.95 134.63,143.57 L 130.00 142.88 L 130.00 98.00 L 137.42 98.00 C146.18,98.00 148.00,97.45 148.00,94.83 C148.00,92.26 113.44,56.00 110.99,56.00 C108.70,56.00 74.63,91.35 74.16,94.20 C73.67,97.24 75.61,97.97 84.25,97.98 L 92.00 98.00 L 92.00 141.77 ZM 46.56 55.19 C47.37,57.73 48.63,56.66 50.07,52.24 C50.73,50.18 52.82,45.41 54.71,41.63 C57.08,36.90 57.83,34.43 57.12,33.72 C55.80,32.40 53.42,34.28 51.37,38.26 C48.79,43.24 45.95,53.26 46.56,55.19 ZM 178.98 60.25 C178.99,61.21 178.76,62.00 178.48,62.00 C177.63,62.00 175.89,56.78 176.53,56.14 C177.32,55.35 178.97,58.10 178.98,60.25 ZM 126.00 33.00 C126.59,34.10 126.69,35.00 126.24,35.00 C125.17,35.00 123.00,32.85 123.00,31.80 C123.00,30.25 124.94,31.03 126.00,33.00 Z" fill="rgba(55,170,219,1)"/>
<path d="M 89.01 147.00 C85.97,146.33 79.71,146.07 67.39,146.05 C44.63,145.99 39.05,145.23 30.44,141.02 C21.69,136.75 15.09,129.97 10.42,120.47 C6.55,112.59 6.50,112.37 6.51,101.00 C6.53,90.67 6.80,88.92 9.18,83.82 C13.99,73.50 22.45,66.00 34.27,61.55 L 40.28 59.29 L 42.10 52.11 C46.19,36.02 54.74,25.06 69.08,17.53 C75.78,14.01 77.25,13.64 86.09,13.21 C102.37,12.43 112.58,16.21 124.87,27.58 L 131.59 33.81 L 137.05 32.34 C154.90,27.51 174.25,38.26 179.93,56.15 C180.94,59.34 181.74,60.01 186.29,61.49 C189.16,62.42 194.07,64.74 197.22,66.64 C224.75,83.31 222.68,126.28 193.66,140.49 C184.35,145.04 177.42,145.96 151.87,145.98 C134.77,146.00 131.03,146.26 130.00,147.50 C130.68,146.68 132.43,145.99 133.87,145.98 C136.46,145.95 136.45,145.93 133.25,144.35 L 130.37 142.93 L 134.63 143.57 C137.17,143.95 148.31,143.94 159.38,143.55 C182.79,142.72 184.68,142.18 194.25,133.51 C200.56,127.80 207.20,119.15 208.51,114.91 C208.92,113.58 210.56,109.91 212.14,106.75 C214.52,102.02 214.91,100.26 214.38,96.75 C214.02,94.41 213.23,91.87 212.61,91.09 C211.72,89.96 211.40,90.25 210.99,92.59 C210.20,97.08 207.80,96.09 204.67,90.00 C200.65,82.19 197.83,78.77 191.23,73.75 C185.28,69.23 180.40,67.00 176.46,67.00 C174.26,67.00 173.00,65.31 173.00,62.36 C173.00,59.97 167.50,49.59 164.79,46.88 C163.42,45.51 162.12,43.85 161.90,43.19 C161.68,42.54 158.42,41.36 154.65,40.57 C147.22,39.01 138.22,39.88 132.70,42.68 C131.16,43.46 129.14,43.82 128.20,43.46 C127.27,43.11 123.77,39.60 120.43,35.66 C115.30,29.61 113.28,28.04 107.43,25.53 C101.15,22.83 99.52,22.56 90.00,22.63 C76.79,22.73 66.74,23.60 62.40,25.03 C55.22,27.40 45.07,42.65 42.95,54.26 C41.79,60.61 42.17,62.00 45.06,62.00 C47.75,62.00 47.48,63.64 44.47,65.61 C42.53,66.88 40.69,67.12 36.58,66.64 C30.99,65.98 25.36,67.54 21.75,70.75 C19.32,72.92 19.57,74.00 22.50,74.00 C25.78,74.00 25.67,74.81 21.50,80.86 C19.58,83.66 18.00,86.20 18.00,86.50 C18.00,86.79 16.84,88.88 15.41,91.13 C12.09,96.41 10.43,95.15 12.08,88.61 C12.73,86.03 13.03,83.70 12.76,83.43 C11.67,82.34 8.60,90.82 8.21,96.00 C7.86,100.63 8.38,102.91 11.50,110.44 C17.41,124.70 22.19,131.05 31.45,136.89 C39.89,142.22 44.09,143.23 60.65,143.92 C68.43,144.24 77.53,144.64 80.86,144.80 C83.90,144.95 85.98,144.81 87.58,144.31 L 85.25 145.50 L 89.01 147.00 ZM 46.56 55.19 C45.95,53.26 48.79,43.24 51.37,38.26 C53.42,34.28 55.80,32.40 57.12,33.72 C57.83,34.43 57.08,36.90 54.71,41.63 C52.82,45.41 50.73,50.18 50.07,52.24 C48.63,56.66 47.37,57.73 46.56,55.19 ZM 178.98 60.25 C178.97,58.10 177.32,55.35 176.53,56.14 C175.89,56.78 177.63,62.00 178.48,62.00 C178.76,62.00 178.99,61.21 178.98,60.25 ZM 126.00 33.00 C124.94,31.03 123.00,30.25 123.00,31.80 C123.00,32.85 125.17,35.00 126.24,35.00 C126.69,35.00 126.59,34.10 126.00,33.00 ZM 110.23 149.04 C101.69,148.99 93.10,148.49 90.67,147.53 C94.41,148.42 102.41,148.94 110.23,149.04 ZM 91.50 142.10 L 91.50 142.32 L 89.99 143.09 L 91.50 142.10 ZM 92.00 98.00 L 92.04 98.00 L 92.00 101.15 L 92.00 98.00 Z" fill="rgba(116,193,224,1)"/>
<path d="M 89.38 147.15 L 85.25 145.50 L 88.38 143.91 L 91.50 142.32 L 91.77 120.16 L 92.04 98.00 L 84.27 97.98 C75.61,97.97 73.67,97.24 74.16,94.20 C74.63,91.35 108.70,56.00 110.99,56.00 C113.44,56.00 148.00,92.26 148.00,94.83 C148.00,97.45 146.18,98.00 137.42,98.00 L 130.00 98.00 L 130.00 120.38 L 130.00 142.75 L 133.25 144.35 C136.45,145.93 136.46,145.95 133.87,145.98 C132.43,145.99 130.68,146.68 130.00,147.50 C128.12,149.77 95.22,149.48 89.38,147.15 Z" fill="rgba(218,223,225,1)"/>
</g>
</svg>